<svg version="1.1" xmlns="http://www.w3.org/2000/svg" viewBox="0 0 969.576171875 180.994140625" width="1939.15234375" height="361.98828125">
  <!-- svg-source:excalidraw -->
  
  <defs>
    <style>
      @font-face {
        font-family: "Virgil";
        src: url("https://excalidraw.com/FG_Virgil.woff2");
      }
      @font-face {
        font-family: "Cascadia";
        src: url("https://excalidraw.com/Cascadia.woff2");
      }
    </style>
  </defs>
  <rect x="0" y="0" width="969.576171875" height="180.994140625" fill="#ffffff"></rect><g transform="translate(663.044921875 24.107421875) rotate(0 40.2265625 13.412109375)"><path d="M-0.6615321636199951 -0.8190701007843018 C21.443665078096096 -1.51367280093953, 44.92117677293719 1.0200567522831263, 81.48056530952454 -0.428818941116333 M0.22251832485198975 -0.8179410696029663 C25.23703542966396 0.43251311955973504, 51.46969218291343 0.4273060577921569, 80.43192613124847 0.7094064950942993 M80.06424450874329 0.349806547164917 C81.85660546145867 9.347606371389702, 81.32495110354851 13.266060492489487, 79.80521893501282 27.750555753707886 M81.2811998128891 -0.0007070302963256836 C80.20970351592172 7.16447567115538, 80.06055266753305 14.496284349169585, 81.22827851772308 26.25967276096344 M80.12132000923157 26.265509366989136 C48.41577893216163 25.641290135066956, 17.72317730821669 27.859101719539613, -1.5935161113739014 26.208006620407104 M80.03946626186371 27.103270173072815 C61.137898087315264 27.730210933107884, 41.00915706120431 26.988431605715306, 0.9390596151351929 26.17090094089508 M0.6425068378448486 25.271788358688354 C-1.2030867498321458 20.90954760159366, 0.4952393610076979 13.577336141373962, -1.4265773296356201 1.6857211589813232 M0.11841142177581787 26.661959290504456 C-0.5621888594375923 20.246961282985282, 0.0057013077987357885 11.568901752028612, 0.46661317348480225 -0.11550271511077881" stroke="#495057" stroke-width="1" fill="none"></path></g><g transform="translate(754.48046875 24.619140625) rotate(0 41.0234375 13.322265625)"><path d="M0.18248629570007324 0.7959797382354736 C28.53266359549016 -0.9165318888239563, 61.467557692155246 -1.5355885904841124, 81.43894839286804 -1.2252528667449951 M-0.6837095022201538 0.6586183309555054 C24.03645587284118 1.2453268173150718, 47.028715974465015 1.4797208908014, 81.76990759372711 0.5063318014144897 M81.19413638114929 1.4541294574737549 C82.36146688390058 4.414942069770769, 83.01165151524823 11.185569135192782, 83.18375277519226 24.871617555618286 M82.00901281833649 0.35462892055511475 C82.46164663900156 6.829822218744084, 82.91188391317148 15.804405165370554, 81.27769339084625 27.4790757894516 M80.92526888847351 25.595921754837036 C53.54686403293162 25.508303142171354, 29.362550974264735 24.150476909261197, 1.8277270793914795 24.858380556106567 M82.94550955295563 26.633036971092224 C53.63938239496201 27.518601993042974, 25.925662463530898 26.704412082154303, -0.7480901479721069 27.58499848842621 M0.3680713176727295 25.815106630325317 C-1.1194033338455482 20.12268091547303, 0.9804883287521079 13.88069465374574, -0.7931911945343018 -0.13215136528015137 M0.44218695163726807 27.450873732566833 C1.0716168687818572 17.88230159548111, 0.27746937732677907 8.36780660683289, -0.2722867727279663 0.44519364833831787" stroke="#495057" stroke-width="1" fill="none"></path></g><g transform="translate(655.146484375 10) rotate(0 150.9765625 75.724609375)"><path d="M0.9096844412721022 1.0200870206499473 C95.77582039664641 -1.6648362366389955, 188.2342194089894 -1.250028958083364, 303.18460186179647 -0.957926848028861 M-0.562403878395658 -0.5847909743066616 C102.7213629973149 1.3206957356635332, 204.5640345252662 1.3507417627084255, 301.4792161259055 0.4321538359539918 M302.83463168144226 -0.7909801006317139 C300.5572159299301 52.729033776326105, 300.6568634519028 108.06667460640892, 303.42263674736023 150.25077557563782 M301.12022268772125 0.9724839925765991 C304.0759471254749 60.84176414166578, 304.1823123293323 121.39402768919246, 301.2322870492935 151.88050019741058 M303.3861767556294 150.75944761094811 C199.34389217835883 149.09083369614922, 98.81402687241241 150.00433428779994, -0.27165438349286464 152.8326485409296 M302.22168912844626 151.28402504094998 C180.69409434262784 152.2502677051163, 61.06190843390371 152.5471271309115, -0.49756361074469607 151.82384261777406 M-1.7673122882843018 149.51775097846985 C-2.10651888132561 97.34539198358543, 1.7709606718970463 45.13128494182601, -1.345811128616333 0.3510105609893799 M0.7733675241470337 150.67297685146332 C-1.3666536011500285 109.36816869522444, -1.7937356629176067 67.05103143742306, -0.9649099111557007 0.8336786031723022" stroke="#000000" stroke-width="1" fill="none"></path></g><g transform="translate(672.619140625 25.3984375) rotate(0 22.5 12.5)"><text x="0" y="18" font-family="Virgil, Segoe UI Emoji" font-size="20px" fill="#000000" text-anchor="start" style="white-space: pre;" direction="ltr">Home</text></g><g transform="translate(762.408203125 26.40234375) rotate(0 28 12.5)"><text x="0" y="18" font-family="Virgil, Segoe UI Emoji" font-size="20px" fill="#000000" text-anchor="start" style="white-space: pre;" direction="ltr">About</text></g><g transform="translate(921.2753849772675 25.95584786849986) rotate(0 8.811138565750298 8.811138565750284)"><path d="M8.5223219546077 -0.1634145507866973 C9.553677232094342 1.8766868714285536, 11.788136168759413 3.995294569833618, 17.5784349425109 9.028901104036253 M9.062200215084873 -0.03725205024100331 C11.293929921402569 1.7372549828253947, 12.362368320072047 4.185065678871733, 17.79972933379739 8.498514057827425 M18.405386950608758 9.896178657674284 C16.293949697984466 11.625655262005198, 12.347681407796573 12.641153673072367, 10.059146343868619 17.757095859001737 M17.844615442729307 8.561566111842827 C15.68239938565158 10.70495442556473, 14.634910495887784 12.45036084856844, 8.610271984015492 17.56523024298777 M9.009860135449127 17.467772554684515 C7.004772959410918 15.237943070182055, 5.589291839023684 13.591952694150327, -0.8382752470224256 9.24381500127245 M8.938092930903721 18.099916026376913 C5.121163991846809 14.281527653400882, 2.0265417633282987 10.645158372462417, -0.12116505233160801 9.453255329503659 M-0.8465301239233496 7.865373879251197 C4.489603709661455 6.144748987367669, 5.682195210618027 3.170761119290754, 8.156650108677889 -0.3566829626826017 M-0.06416870329838165 9.488752818319163 C3.521477501809173 5.836028356070864, 7.114338800825857 1.8157049529122022, 9.277181927104273 0.25713235095159137" stroke="#000000" stroke-width="1" fill="none"></path></g><g transform="translate(845.41796875 24.107421875) rotate(0 49.134765625 13.59765625)"><path d="M-1.1558163166046143 -0.40941882133483887 C22.39175202739425 -0.13143772695679223, 42.102162168268116 0.2753844776330515, 99.19097781181335 -0.8530147075653076 M0.9579759836196899 0.4587053060531616 C30.268950543133542 -0.6272436999110504, 59.937957329209894 -0.3471953295497223, 98.21213018894196 -0.806618332862854 M99.3641345500946 1.5958988666534424 C97.81649195286445 5.507730982918293, 99.94861017796211 16.401252552308144, 99.29955172538757 27.313679933547974 M98.77350103855133 -0.874336838722229 C99.02931386751123 10.705769527237862, 97.36749059480616 21.324328041635454, 98.9559999704361 27.726916670799255 M98.33403658866882 28.932515382766724 C78.4979282240849 25.969336652797647, 58.43403665637597 26.91863932613749, 0.537764310836792 25.616360902786255 M97.50858175754547 27.40236222743988 C77.01274829474278 26.720715704741888, 55.695259558502585 26.061555090728216, 0.5920816659927368 27.569411635398865 M1.246077299118042 28.592618227005005 C1.5405207678396255 19.000902147870512, -1.6589039758127182 11.031500521861016, 1.6868655681610107 -1.3121592998504639 M-0.7703756093978882 26.39427125453949 C1.1408519663196057 18.152398174721746, 0.8752689279895276 9.003664743341503, -0.6491559743881226 0.5919603109359741" stroke="#495057" stroke-width="1" fill="none"></path></g><g transform="translate(856.189453125 25.3984375) rotate(0 22 12.5)"><text x="0" y="18" font-family="Virgil, Segoe UI Emoji" font-size="20px" fill="#000000" text-anchor="start" style="white-space: pre;" direction="ltr">More</text></g><g transform="translate(916.021484375 23.866838362082206) rotate(0 10.449941387053173 6.9147105006303065)"><path d="M-1.7540829181671143 0.6634571552276611 L22.6402227685369 -0.04812884330749512 L21.672487478009558 12.231083112542965 L-1.3682262897491455 12.178188520257809" stroke="none" stroke-width="0" fill="#fff"></path><path d="M0.22112774848937988 -1.9424526691436768 C4.816235043158366 1.8045162394603047, 10.627406790952351 -1.619762019817039, 20.29338143324027 -0.426224946975708 M-0.09356749057769775 -0.5963376760482788 C8.225880207145616 -0.09697550712932845, 16.09159255330643 0.009633837353093422, 21.047461371175146 -0.23354089260101318 M21.17041415552351 1.081002997025025 C20.839257836002226 4.325021258236095, 20.777529146756713 11.425307389708351, 19.83457704354147 13.775551990834703 M21.40280420956098 0.35498521710685416 C20.266972505239302 3.434794468837572, 20.351224964994486 6.921535108795081, 21.5826330015152 13.972460149246626 M20.3394095704473 15.227407174890377 C13.9908071032266 15.529636891994798, 10.498894089130902 15.226940663967454, 0.34871411323547363 14.608380990808346 M21.30392728304038 13.461911755388119 C13.360467379049894 14.643070917190961, 5.517959623496907 14.794357996048383, 0.39787614345550537 13.708741741960385 M1.036376507284233 14.21227415832561 C-0.9551698770853294 7.663151734024872, 0.2225497856131966 2.2800426258338398, 0.30726472585066 1.3044997853239773 M-0.6515754522623878 13.882948010559916 C0.5200642728372421 11.457095689652435, -0.4772884963513808 8.449587240084757, 0.6051317157543505 -0.1899876844215901" stroke="transparent" stroke-width="1" fill="none"></path></g><g transform="translate(652.361328125 157.044921875) rotate(0 153.607421875 6.974609375)"><path d="M-0.21752939745783806 -0.3615446873009205 L307.0912430472672 1.6704783849418163 L306.87696327641606 12.120878379791975 L0.18198968842625618 14.773468773812056" stroke="none" stroke-width="0" fill="#fff"></path><path d="M0.5764418226194176 -1.1077340568421488 C71.00858961582598 0.8183947759854093, 139.84010145571025 -0.32416591143800955, 307.4668985472104 0.583458099986448 M-0.546688272167475 0.5749174350653696 C92.94123931449205 -0.2134740655053025, 185.65560648599214 -0.7861234987150575, 307.1543651760914 0.3328309338441361 M307.62155999654277 0.4694681166663941 C306.9935506602303 6.485832225320337, 307.3053883024744 10.4559723113176, 305.98152472743607 12.882461815303396 M306.745717082929 -0.051627435785121634 C307.8999293192704 3.348125296675062, 306.9188506260114 6.20304387466349, 307.4326068237886 13.459303599124905 M307.3309439103079 12.522841515374163 C240.37729908243787 13.539379189148415, 174.37404707064604 15.26784294390402, 1.3090608471704313 14.752283001388758 M307.70185794444984 13.59247976675203 C195.91171858791742 11.358577532580444, 85.70842919376597 12.63437896779181, -0.6376858636621189 14.50333463148141 M-0.6107208663008351 14.12118779239172 C1.4623157892091696 10.08114603392314, 0.36105964253139966 4.429601388891022, -0.5125793112551037 0.4082851548904729 M0.6228664263031534 14.188389079511762 C0.6472262264831807 8.601808055006767, -0.41556754617282426 3.859099583984425, -0.049691896955846415 0.5880670443355485" stroke="transparent" stroke-width="1" fill="none"></path></g><g transform="translate(13.162109375 10) rotate(0 248.7578125 75.724609375)"><path d="M0.15812555376815562 0.7108322926415722 C147.40760310763406 -1.098922916389808, 294.8484222010514 -2.2754458608695733, 497.8499653806891 0.1907636185871933 M-0.36706199473322376 0.23728379505187822 C167.15772938722125 -1.746247959716619, 334.5667128410883 -1.3813761510903, 497.70948241612814 0.12349708278500729 M498.76624443009496 0.6505101136863232 C498.457667008296 29.823371024791413, 497.32256127919294 59.793881319441425, 499.3525043912232 151.4543124847114 M497.2609626855701 -0.8045798446983099 C498.75229787322115 59.095528332189865, 497.67327576371264 119.2877603036337, 496.5915843453258 151.082776973024 M497.964107848713 151.44495292482975 C373.0392332419821 150.61251898766463, 249.20470776179152 151.28681730790353, -0.6409313562257944 150.64667269966773 M497.37194106003363 151.22430170792484 C361.90109863382474 152.89566624851216, 226.56812961497693 153.2642975893738, 0.07101168492930365 151.08233314741761 M1.3677289672195911 153.09419540688396 C1.362029622860791 110.07378729447882, -0.6692629348555784 69.2785187999936, -1.6798840574920177 -1.6833391971886158 M0.7018490638583899 152.40538025833666 C1.6223048949531949 110.01204669047219, -0.15284987446742893 67.61310742497588, 0.7292289938777685 0.6127634737640619" stroke="#000000" stroke-width="1" fill="none"></path></g><g transform="translate(24.060546875 23.86226871149327) rotate(0 40.2265625 13.412109375)"><path d="M-0.13860223814845085 1.5313623361289501 C24.444632876475225 1.7915612290895662, 48.49419565833523 1.1221835444963655, 81.31049646809697 -1.821863491088152 M-0.581242123618722 0.8614508006721735 C26.555969754283435 0.2979982863410259, 54.9717060309893 -0.3249706853882527, 81.16085567139089 0.8672387097030878 M80.6754361577332 -0.8181050606071949 C81.78572706010884 9.984683936311194, 81.30880538251942 17.832558840212005, 80.09171702340245 25.299780409783125 M81.1862791981548 0.08629913069307804 C80.1991458628409 9.706328510678578, 80.58012474515367 20.44886498600099, 79.50041945837438 26.775018939748406 M81.90706564858556 25.993266623467207 C64.86128346510523 26.402533066020986, 45.45199496448622 26.409493577228567, -1.6068101935088634 28.48936788365245 M80.06748422048986 27.558151016011834 C62.34221465973823 26.042419495671346, 44.23812086497782 26.527265312760427, -0.7119214329868555 27.664727041497827 M-0.916247945278883 26.619652193039656 C1.6112832758366857 19.95052393480364, 0.911758754008988 8.683659317925049, -1.3630881123244762 -1.6262700147926807 M-0.4953052792698145 25.943083116784692 C0.9276203581375739 21.986193504976836, 1.0979402133507392 15.701737746318393, -0.9029858503490686 -0.029982199892401695" stroke="#495057" stroke-width="1" fill="none"></path></g><g transform="translate(115.49609375 24.04195621149327) rotate(0 41.0234375 13.322265625)"><path d="M1.5313623361289501 0.39132728055119514 C28.158254359985587 0.44444386902760014, 53.88797154863715 0.9142308706374024, 80.22501150891185 0.8274216838181019 M0.8614508006721735 -0.9084007535129786 C27.13800445115485 0.5198560140092741, 53.06581275556819 1.1846216700036893, 82.91411370970309 0.4797560777515173 M81.2287699393928 1.2506194300949574 C82.43743719609621 9.581391653972242, 80.95113827737215 17.253979826335854, 80.52243665978312 28.481410641223192 M82.13317413069308 -0.2546623144298792 C81.49270955302237 8.126461951567762, 81.72433767296789 15.047585225744115, 81.9976751897484 25.720490595325828 M81.2159228734672 27.754431385546923 C60.42879575253755 25.643340988629205, 38.82823403077782 25.634177489750726, 1.6651491336524487 25.058361787348986 M82.78080726601183 26.288943907245994 C65.02398508852056 25.623766901679627, 49.04256307277246 25.616203608699433, 0.8405082914978266 26.82027014158666 M-0.20456655696034431 28.01226021721959 C1.735801649878922 21.738604424479853, -1.0123914949193569 14.133180595851444, -1.6262700147926807 -1.6798840574920177 M-0.8811356332153082 27.34638031385839 C1.0182948888191459 21.765929986263654, 0.5280258835205314 14.240005034035129, -0.029982199892401695 0.7292289938777685" stroke="#495057" stroke-width="1" fill="none"></path></g><g transform="translate(208.98828125 23.67476871149327) rotate(0 48.1875 13.505859375)"><path d="M-0.19245131686329842 -1.8175163082778454 C35.62178393413779 1.119456304500345, 72.5880386858713 1.306784047076944, 97.55749897286296 0.407919067889452 M0.9464497063308954 0.07377429865300655 C21.620935383834876 -0.372407859864179, 44.99336760980077 -1.559790259900037, 96.30900526978076 0.3683775868266821 M96.77698616310954 0.27407946065068245 C94.29336717389997 9.237725481052621, 95.13390007280286 14.58188373900339, 95.85192958638072 25.879782933741808 M96.43753529526293 0.6412376370280981 C95.37425223378341 7.755056874757429, 96.53984603671233 16.67761291363422, 95.42229277826846 26.881418546661735 M94.98087112233043 27.016664762049913 C63.523696764209305 25.69303042109823, 32.79446964119561 26.881632272561546, -1.3800565786659718 26.300609964877367 M96.65346867777407 26.973263582214713 C76.5037239033496 26.51928959161276, 56.24247743519954 27.851106562914794, -0.7917569782584906 26.11062123440206 M-0.9383403845131397 28.383017916232347 C2.0917455251979846 20.97040252817169, 0.7643783386516588 13.897527893284858, -1.0467847175896168 -1.3451027683913708 M-0.6049078609794378 27.5043614115566 C0.5819761554583238 20.753469506114925, -0.17171486216939227 15.19693451900821, -0.350661089643836 -0.7614581976085901" stroke="#495057" stroke-width="1" fill="none"></path></g><g transform="translate(320.48828125 23.22164371149327) rotate(0 32.25390625 13.732421875)"><path d="M0.6631579585373402 -0.7021834440529346 C20.610166307834152 -0.24660484222389645, 39.58844373061729 2.2122675952532154, 64.91329731419683 1.1574660949409008 M-0.7702119741588831 -0.9022046234458685 C19.180910489436066 -1.1765223786102432, 39.124180398709726 -0.03756660668717804, 65.1654817070812 0.35029501654207706 M63.521767277270555 -1.3889463730156422 C62.479587800168886 3.863199222877302, 63.33559764113416 10.056426819502668, 63.35871769860387 27.509685557335615 M64.92949165962636 0.8747143242508173 C64.08850416962967 9.835212948210392, 64.6390768629776 17.53662687063188, 63.66647585295141 27.303554067388177 M63.069940347224474 27.938157122582197 C41.9770126549367 27.368928151025173, 19.86677005176025 27.825427846803066, -1.263012032955885 28.611000936478376 M64.80220516584814 28.093216905370355 C51.31157899740356 27.539155223440176, 38.01512664182519 26.2112187529316, -0.5204210076481104 28.22238356806338 M-1.6492320112884045 29.386426847428083 C0.9556187954950293 22.73131180396522, -1.654138270277981 17.093206495609774, -0.4048948101699352 -0.6773817129433155 M0.9074378218501806 28.395942280068994 C-0.8253449901703425 21.26886163354866, -0.07478679267202096 15.823248043302737, 0.6545347776263952 -0.9517491962760687" stroke="#495057" stroke-width="1" fill="none"></path></g><g transform="translate(396.69140625 21.84664371149327) rotate(0 48.1953125 13.322265625)"><path d="M-0.8341000862419605 1.154737014323473 C23.95621956306568 0.6703108683516621, 46.91271886935574 -0.6192138060639263, 97.36618284508586 -0.8472598604857922 M-0.18167381547391415 0.423253258690238 C39.02524111993553 0.8028287592661218, 76.20036627568189 0.7980864349138574, 97.33987070061266 -0.9607857260853052 M98.26377062126994 -1.3877156786620617 C98.12300066816555 5.798844430706959, 95.50898949968563 16.625194121374808, 97.02195684239268 25.6638953872025 M97.29438949562609 -0.3840316329151392 C96.6171073627071 6.76313097571765, 97.05599370713993 15.8745479636229, 96.20058710314333 27.32521208189428 M96.51259271427989 26.148067254573107 C74.90674556308367 25.688195458342378, 56.57425580324488 28.838421455313508, -1.9165570326149464 28.520009893923998 M96.8222048971802 27.437748035416007 C70.55375267829804 27.427422484276757, 45.42843743756529 27.121078750012384, -0.07194196246564388 25.934061070904136 M0.9454472474753857 28.32861413434148 C0.48658291834937695 14.842094048141007, 0.7193201019202388 6.923342058864364, -1.4358089752495289 0.06495572999119759 M0.38230217434465885 26.752789041027427 C-0.36609611177998885 19.12552918832007, -0.37725630665379867 11.11376883207267, -0.5342960860580206 0.9936298932880163" stroke="#495057" stroke-width="1" fill="none"></path></g><g transform="translate(33.634765625 24.62594058649327) rotate(0 22.5 12.5)"><text x="0" y="18" font-family="Virgil, Segoe UI Emoji" font-size="20px" fill="#000000" text-anchor="start" style="white-space: pre;" direction="ltr">Home</text></g><g transform="translate(123.423828125 25.62984683649327) rotate(0 28 12.5)"><text x="0" y="18" font-family="Virgil, Segoe UI Emoji" font-size="20px" fill="#000000" text-anchor="start" style="white-space: pre;" direction="ltr">About</text></g><g transform="translate(216.916015625 24.55562808649327) rotate(0 40 12.5)"><text x="0" y="18" font-family="Virgil, Segoe UI Emoji" font-size="20px" fill="#000000" text-anchor="start" style="white-space: pre;" direction="ltr">Services</text></g><g transform="translate(328.416015625 25.00484683649327) rotate(0 20.5 12.5)"><text x="0" y="18" font-family="Virgil, Segoe UI Emoji" font-size="20px" fill="#000000" text-anchor="start" style="white-space: pre;" direction="ltr">Blog</text></g><g transform="translate(404.619140625 25.68648746149327) rotate(0 40.5 12.5)"><text x="0" y="18" font-family="Virgil, Segoe UI Emoji" font-size="20px" fill="#000000" text-anchor="start" style="white-space: pre;" direction="ltr">Contact</text></g><g transform="translate(10 160.400390625) rotate(0 252.5 5.296875)"><path d="M-1.831778485327959 -1.7792652659118176 L506.086349170655 -0.8391833119094372 L504.7823508195579 12.450160879641771 L-1.1904288120567799 11.404563207179308" stroke="none" stroke-width="0" fill="#fff"></path><path d="M-0.019992057979106904 -0.2366307094693184 C156.90257808472964 -1.3328892159089447, 313.6612886693329 -1.1117853092774748, 505.7608559206128 -0.7238560989499092 M-0.362095657736063 -0.3194945774972439 C122.68162868190558 1.1790323881432414, 244.8525830935687 0.938249340467155, 505.0053306184709 -0.2857157908380032 M504.4608667850436 0.10683084047050206 C504.7519972713414 3.227124847483356, 504.00591559146824 7.37325799848768, 504.2769066041277 10.439937849441776 M505.49635188342364 -0.4826102579041617 C504.50641872054314 2.154156438904465, 504.90361024644574 5.029358687237255, 504.7840063828538 10.734606737733703 M505.281746776402 10.792393700778485 C331.80360098872336 9.837108311019838, 158.10466204918922 10.23734124597162, 0.6016236856579781 9.970680396258832 M504.8902293525636 10.25482759848237 C315.04991958420726 11.75634608734399, 125.13640043474734 12.310642080195247, 0.21194487437605858 10.984781006723642 M-0.40370961614535184 11.389369047718356 C0.8988870099320775 6.523820104636251, 0.13938452174363192 3.568517730472376, 0.8576756881491747 0.48814264881075364 M-0.07641734326898586 10.59592306278355 C-0.042407192063983565 6.422153107172926, 0.44752369536319747 2.695344360740273, -0.02844637059315569 -0.18475490222044755" stroke="transparent" stroke-width="1" fill="none"></path></g><g><g transform="translate(543.0669429607688 80.90961934611201) rotate(0 38.49706403259188 -1.705282129682601)"><path d="M0.5029667358845473 0.30730788297951217 C13.631048097896102 -0.26571080025285465, 64.82269019776345 -3.2636854751035558, 77.68624252229942 -3.7178721423447114 M-0.6921144571155311 -0.5769594237953424 C12.342788799541715 -0.9503016648814078, 63.65398602464558 -1.742826048098503, 76.55907719329014 -2.3554687499999982" stroke="#000000" stroke-width="4" fill="none"></path></g><g transform="translate(543.0669429607688 80.90961934611201) rotate(0 38.49706403259188 -1.705282129682601)"><path d="M49.19324336021797 8.158150841401698 C54.000440881505604 5.712834044044868, 62.016373427379776 3.3831613223879744, 78.24105173654868 -3.76229111663997 M49.021409274149995 9.554982254201354 C56.034575189734184 4.977940710540062, 63.1569669606612 1.8596379310076525, 76.01656001646086 -2.2021114761009795" stroke="#000000" stroke-width="4" fill="none"></path></g><g transform="translate(543.0669429607688 80.90961934611201) rotate(0 38.49706403259188 -1.705282129682601)"><path d="M48.59192395261271 -12.354245833679366 C53.477464778641355 -10.498318331339194, 61.61956187071351 -8.524226389468524, 78.24105173654868 -3.76229111663997 M48.420089866544735 -10.95741442087971 C55.400095255271225 -10.123306386781186, 62.68116138517148 -7.828859548959039, 76.01656001646086 -2.2021114761009795" stroke="#000000" stroke-width="4" fill="none"></path></g></g></svg>