<svg xmlns="http://www.w3.org/2000/svg" viewBox="0 0 36 37">
  <g fill="none" fill-rule="evenodd">
    <path fill="#1A1919" d="M23.752 34.493c.033-.596.158-1.153.168-1.822.056-3.594-1.659-1.864-2.762-1.214-2.08 1.227-1.994-1.585-2.064-3.321-.012-.31-.053-.686.291-.655.368.034.434.979 1.144 1.829.958 1.147 1.655.242 2.446-.482.272-.248.969-.639 1.415-.311 1.068.784 1.316 4.915 1.339 6.587l-1.977-.611zm-13.448.775c-.126-.706.291-3.179.48-3.915.301-1.173.798-2.351 1.49-2.955.798-.696 1.154-.216 1.48.04.816.638 1.916 1.623 2.926.453.159-.184.288-.449.372-.741.098-.346.142-.648.384-.672.328.392-.234 2.66-.381 3.169-.327 1.128-.75 2.154-1.768 1.194-.267-.251-.576-.67-.82-1.047-.235-.361-.487-.823-.955-.913-.515-.098-.831.478-.975.868-.296.802-.251 1.987-.163 2.853.034.348.131.793.14 1.132l-2.21.534zm3.466-8.022c.042-.024 1.136-.247 1.349-.316.22-.072.419-.135.625-.217.209-.085.374-.186.584-.242-.039.409-.11.84-.224 1.227-.108.365-.213.826-.677.668-.538-.184-1.043-.787-1.657-1.12zm4.274-2.619c1.35-.338 1.933 1.393.572 1.702-1.327.303-2.053-1.329-.572-1.702zm2.345 1.309c-.001-.34.069-.486.025-.912.875-.019 1.817.288 2.103.843-.437.405-1.554.236-2.128.069zm-7.675-.157c.217-.379 1.909-1.333 3.081-1.151.247.038.177-.006.16.15-.05.448-.209.11.005.855-.514.209-.982.403-1.588.503-.538.089-1.33-.049-1.658-.357zm9.751-1.29c.6-.44 3.483-.564 4.529.534-.325.36-1.679.641-2.466.463-.839-.191-1.356-.612-2.063-.997zm-13.095.249c.048-.031.137-.078.198-.111 1.076-.569 2.389-.565 3.552-.354-.084.11-1.486 1.016-1.649 1.049-.692.143-1.968.044-2.275-.433l.174-.151zm17.022-1.201c.023-.01.08-.025.105-.032l.754-.15c.807-.13 2.596-.151 3.034.333-.34.369-1.383.627-2.033.551-.74-.087-1.373-.381-1.977-.628l.117-.074zm-21.038-.293c.386-.339 1.94-.388 2.539-.324.431.047.826.124 1.228.238.187.054.355.103.537.17.085.031.171.061.26.096l.232.132c-.45.374-1.859.609-2.587.573-.902-.044-1.735-.412-2.209-.885zm12.788-1.036c.528-.315.847.773.326 1.003-.549.242-.827-.704-.326-1.003zm2.265 2.017c.079-.149.192-.207.305-.373.086-.127.162-.288.222-.446.056-.15.114-.342.147-.516.053-.269-.001-.324.227-.441.583-.296 1.368-.59 2.162-.476-.099.508-1.501 2.359-3.063 2.252zm-5.011-1.566c.178.253.326.539.489.802.177.288.361.53.522.765-1.154.01-2.548-1.55-2.713-2.276.936-.22 1.311.152 1.702.709zm-1.829 1.134c-.637-.09-1.356-.567-1.649-.9-.268-.302-.608-.92-.898-1.323l-.131-.213c1.17-.037 1.753.912 2.183 1.67l.495.766zm10.143-.105c.219-.986 1.103-2.126 2.062-2.599.323-.16.833-.3 1.242-.264-.053.536-.941 1.638-1.201 1.858-.472.402-1.21.95-2.103 1.005zm-4.594.231c-.161-.568.988-1.12.279-2.367-.884-1.552-3.44-.463-2.044 1.999.27.477.087.766-.493.182-.255-.256-.423-.61-.539-1.016-.598-2.076 1.286-3.698 2.799-2.844 1.928 1.088.904 4.222-.002 4.046zm-8.524-1.013c-1.362-.2-2.971-1.402-3.12-2.697.859.004 1.562.543 1.974.932.288.272 1.016 1.207 1.146 1.765zm18.771-.55c.1-.121.341-.263.474-.361 1.037-.76 2.43-2.027 3.783-2.044-.133.949-.79 1.875-1.365 2.238-.857.54-2.389.534-2.892.167zM1.917 19.503c.982.235 1.82 1.078 2.415 1.594l.735.586c-.861.359-1.584.26-2.192-.24-.389-.32-.857-1.192-.958-1.94zm25.397 3.013c.047-.6.788-1.681 1.154-2.113.325-.384 1.283-1.118 2.076-1.198-.138 1.435-1.133 2.182-2.194 2.726l-1.036.585zM4.157 18.112c.872.14 1.659 1.105 2.011 1.725.368.651.534 1.683 1.283 2.318-.42.018-1.042-.302-1.329-.491-1.074-.707-1.853-2.222-1.965-3.552zm27.395 1.58c.07-.741.581-1.663.933-2.03.311-.325 1.185-1.053 1.838-1.088.148 1.026-.024 1.764-.636 2.246-.399.313-1.576.683-2.135.872zm-28.091-.764c-.227-.024-.626-.213-.814-.326a2.562 2.562 0 0 1-.616-.494c-.319-.32-.663-1.146-.38-1.719 1.125.174 1.83 1.346 1.81 2.539zm16.88 7.801c.209-.052.46.108.704.155.708.137 1.581-.028 2.23-.242 1.075-.355.44-.351 1.323-.153 2.213.497 3.395-1.083 3.699-1.274.242-.152 1.578.243 2.95-1.366.691-.811.176-.391 1.04-.691 2.289-.795 1.993-3.581 2.148-3.859l.357-.531c.111-.197.184-.354.273-.573a3.94 3.94 0 0 0 .017-2.855c-.952.049-1.871.581-2.415 1.036-.41.342-.517.462-.869.866-.146.169-.254.329-.378.51-.12.177-.204.353-.334.51-1.257.105-2.322.275-3.072 1.503-1.405.029-2.583.34-3.459 1.038-.443.354-.263.181-.893.154-1.491-.066-2.404.597-2.698.639-.135-1.577-1.043-2.786-2.637-2.841-1.651-.057-2.543 1.204-2.759 2.714-.467-.221-.581-.338-1.224-.413-.595-.07-1.016.016-1.577.028-.08-.021-.402-.461-1.325-.695-.736-.186-1.111-.102-1.845-.113-.183-.295-.674-.616-1.128-.785-.636-.237-1.002-.177-1.705-.174l-.048-.057a.566.566 0 0 0-.023-.028l-.021-.029c-.393-.536-.445-.724-1.089-1.269a3.76 3.76 0 0 0-.757-.49c-.28-.138-.792-.211-.945-.294-.09-.103-.151-.269-.228-.398-.527-.88-1.629-1.653-2.65-1.625a2.531 2.531 0 0 0-.414 1.8c.155 1.1.562.955.502 1.649-.126 1.455.378 2.577 1.088 3.34.934 1.004 1.426.735 1.971 1.364.461.533 1.256 1.086 1.956 1.377.749.311 1.058.281 1.903.314.165.232.203.341.388.509.723.659 1.796.784 2.772.763.583-.011.78.573 1.739.831-.245.167-.607.025-1.445.78-.335.303-.668.783-.935 1.29-.794 1.511-1.098 3.749-1.155 5.529-.021.646-.228 1.639.502 1.631.383-.004 3.029-.704 3.592-.85.074-.552-.363-3.778-.033-4.253.174.079.205.214.299.37.205.338.561.756.833 1.035 2.496 2.562 3.287-1.988 3.742-2.237.168 1.148.545 2.344 1.75 2.361 1.632.023 2.305-1.325 2.883-1.075.132.378-.29 2.503-.328 3.105-.034.538.226.516 1.001.762.471.149 2.327.832 2.694.732.514-.142.36-.828.32-1.315-.088-1.068-.167-2.132-.259-3.202-.146-1.704-.809-4.639-2.652-4.305-1.669.301-2.084 2.138-2.702 1.083-.219-.375-.834-1.422-.674-1.786zM3.045 1.538l.869.008L7.28 8.717c.074-.064.023.002.097-.112l.362-.794c.141-.306.282-.6.421-.914.271-.609.547-1.2.823-1.799l1.244-2.713c.464-1.004.196-.862 1.135-.816l.806 9.015-.606-.007-.857-8.093c-.293.358-3.314 7.405-3.546 7.608L3.52 2.373c-.137.164-.128.791-.144.997-.025.34-.049.68-.076 1.02-.055.689-.108 1.377-.156 2.069-.094 1.373-.211 2.731-.31 4.117l-.436.004.647-9.042zm-2.534 10.3h4.005c-.099-.284-.419-.767-.587-1.052-.177-.301-.164-.251-.138-.659.017-.268.026-.531.04-.799.058-1.032.112-2.068.155-3.102.13.066 1.333 2.6 1.521 2.979.511 1.033 1.033 2.064 1.513 3.062l.122-.164c.032-.059.055-.121.083-.182.066-.142.118-.255.185-.393.131-.27.251-.512.376-.781.24-.51.477-1.019.736-1.53.201-.397 1.386-2.957 1.488-3.065.086.205.296 2.622.341 3.046.043.416.223 1.205.058 1.504-.158.288-.557.844-.648 1.137H14c-.105-.292-.454-.791-.631-1.068-.216-.338-.202-.959-.251-1.443l-.596-6.142c-.031-.339-.205-1.309-.091-1.57.143-.325.5-.693.66-1.067L9.921.548c-.188.06-2.434 5.179-2.7 5.512L4.632.559 1.464.547c.131.412.458.75.436 1.22-.025.533-.067 1.063-.096 1.597l-.407 6.853c-.037.649-.67 1.011-.886 1.621zM24.239 1.54l.8-.006c.128.035.788 1.562.895 1.783.3.612.576 1.202.856 1.812l1.588 3.391c.014.029.05.091.07.118.065.089.008.021.067.08l3.28-7.178.756.007.807 9.035-.582-.01c-.097-.21-.571-5.159-.671-6.091-.063-.584-.103-1.452-.238-1.999l-3.493 7.604c-.107-.103-.424-.824-.495-.975-.152-.326-.303-.635-.456-.966-.303-.655-.612-1.283-.913-1.932-.232-.498-1.703-3.678-1.867-3.874l-.622 8.244-.438.002.656-9.045zm-2.545 10.296l4.01.001c-.272-.789-.772-.931-.728-1.682.017-.277.031-.551.042-.829.04-.998.071-2.122.163-3.111.249.263 2.703 5.548 2.978 5.949.092.136.024.047.093.106l2.919-6.108c.001.007.009.011.012.031l.189 1.456.17 1.587c.042.387.226 1.183.045 1.483-.187.312-.516.794-.643 1.118l4.25.002c-.103-.273-.476-.817-.644-1.084-.212-.336-.206-1.007-.245-1.429-.095-1.031-.2-2.063-.299-3.083-.041-.423-.486-4.395-.395-4.618.123-.303.547-.725.662-1.077h-3.239l-2.6 5.499c-.002-.005-.016-.031-.02-.024l-.178-.293c-.422-.948-2.288-4.761-2.419-5.182h-3.16c.128.425.46.749.432 1.221-.031.516-.062 1.043-.096 1.556l-.411 6.894c-.032.662-.629.942-.888 1.617z"/>
    <path fill="#1A1919" d="M20.943 10.35c-.41.432-1.31.963-2.121 1.083-.952.143-1.866-.214-2.486-.651-1.405-.989-1.91-2.71-1.881-4.478.034-2.058.806-3.564 2.033-4.327 1.198-.747 2.423-.759 3.618.056.529.361.547.472.843.713.013.18-.068.718-.134.87l-.71-.693c-.819-.793-1.914-1.216-2.911-.463-2.615 1.974-2.12 6.16-.179 7.688 1.622 1.274 2.589.512 3.768-.441l.16.643zm.979.489c-.055-.438-.225-1.031-.328-1.488l-.253-1.123c-.031-.146-.04-.271-.138-.378-.239.372-.863.975-1.226 1.261-.465.367-1.097.798-1.865.473-1.485-.63-2.073-3.671-.964-5.437.241-.384.782-1.145 1.485-1.042.497.073 1.278.762 1.497.993.184.194.382.439.561.684.124.168.411.651.525.757.091-.194.451-2.298.55-2.815.108-.562.144-.493-.216-.801-.662-.565-1.878-1.364-3.065-1.5-1.369-.157-2.549.647-3.246 1.238-2.389 2.019-2.646 7.639.168 9.741 1.516 1.131 3.385 1.412 5.196.425.473-.257 1.028-.652 1.319-.988z"/>
    <path fill="#FFFFFE" d="M10.304 35.268l2.21-.534c-.009-.339-.106-.784-.14-1.132-.088-.866-.133-2.051.163-2.853.144-.39.46-.966.975-.868.468.09.72.552.955.913.244.377.553.796.82 1.047 1.018.96 1.441-.066 1.768-1.194.147-.509.709-2.777.381-3.169-.242.024-.286.326-.384.672-.084.292-.213.557-.372.741-1.01 1.17-2.11.185-2.926-.453-.326-.256-.682-.736-1.48-.04-.692.604-1.189 1.782-1.49 2.955-.189.736-.606 3.209-.48 3.915m13.279-24.683l.438-.002.622-8.244c.164.196 1.635 3.376 1.867 3.874.301.649.61 1.277.913 1.932.153.331.304.64.456.966.071.151.388.872.495.975l3.493-7.604c.135.547.175 1.415.238 1.999.1.932.574 5.881.671 6.091l.582.01-.807-9.035-.756-.007-3.28 7.178c-.059-.059-.002.009-.067-.08a1.016 1.016 0 0 1-.07-.118L26.79 5.129a77.7 77.7 0 0 0-.856-1.812c-.107-.221-.767-1.748-.895-1.783l-.8.006-.656 9.045M2.398 10.58l.436-.004c.099-1.386.216-2.744.31-4.117.048-.692.101-1.38.156-2.069.027-.34.051-.68.076-1.02.016-.206.007-.833.144-.997l3.639 7.719c.232-.203 3.253-7.25 3.546-7.608l.857 8.093.606.007-.806-9.015c-.939-.046-.671-.188-1.135.816L8.983 5.098c-.276.599-.552 1.19-.823 1.799-.139.314-.28.608-.421.914l-.362.794c-.074.114-.023.048-.097.112L3.914 1.546l-.869-.008-.647 9.042m21.354 23.913l1.977.611c-.023-1.672-.271-5.803-1.339-6.587-.446-.328-1.143.063-1.415.311-.791.724-1.488 1.629-2.446.482-.71-.85-.776-1.795-1.144-1.829-.344-.031-.303.345-.291.655.07 1.736-.016 4.548 2.064 3.321 1.103-.65 2.818-2.38 2.762 1.214-.01.669-.135 1.226-.168 1.822M20.943 10.35l-.16-.643c-1.179.953-2.146 1.715-3.768.441-1.941-1.528-2.436-5.714.179-7.688.997-.753 2.092-.33 2.911.463l.71.693c.066-.152.147-.69.134-.87-.296-.241-.314-.352-.843-.713-1.195-.815-2.42-.803-3.618-.056-1.227.763-1.999 2.269-2.033 4.327-.029 1.768.476 3.489 1.881 4.478.62.437 1.534.794 2.486.651.811-.12 1.711-.651 2.121-1.083m-1.827 13.569c.906.176 1.93-2.958.002-4.046-1.513-.854-3.397.768-2.799 2.844.116.406.284.76.539 1.016.58.584.763.295.493-.182-1.396-2.462 1.16-3.551 2.044-1.999.709 1.247-.44 1.799-.279 2.367m10.247-1.563c.503.367 2.035.373 2.892-.167.575-.363 1.232-1.289 1.365-2.238-1.353.017-2.746 1.284-3.783 2.044-.133.098-.374.24-.474.361m-21.912-.201c-.749-.635-.915-1.667-1.283-2.318-.352-.62-1.139-1.585-2.011-1.725.112 1.33.891 2.845 1.965 3.552.287.189.909.509 1.329.491m24.101-2.463c.559-.189 1.736-.559 2.135-.872.612-.482.784-1.22.636-2.246-.653.035-1.527.763-1.838 1.088-.352.367-.863 1.289-.933 2.03m-9.087 4.797c.707.385 1.224.806 2.063.997.787.178 2.141-.103 2.466-.463-1.046-1.098-3.929-.974-4.529-.534M5.354 23.244c.474.473 1.307.841 2.209.885.728.036 2.137-.199 2.587-.573l-.232-.132c-.089-.035-.175-.065-.26-.096a7.61 7.61 0 0 0-.537-.17 7.328 7.328 0 0 0-1.228-.238c-.599-.064-2.153-.015-2.539.324m18.356.444c.893-.055 1.631-.603 2.103-1.005.26-.22 1.148-1.322 1.201-1.858-.409-.036-.919.104-1.242.264-.959.473-1.843 1.613-2.062 2.599m3.604-1.172l1.036-.585c1.061-.544 2.056-1.291 2.194-2.726-.793.08-1.751.814-2.076 1.198-.366.432-1.107 1.513-1.154 2.113m-16.722.39c-.13-.558-.858-1.493-1.146-1.765-.412-.389-1.115-.928-1.974-.932.149 1.295 1.758 2.497 3.12 2.697m2.122 2.873c.328.308 1.12.446 1.658.357.606-.1 1.074-.294 1.588-.503-.214-.745-.055-.407-.005-.855.017-.156.087-.112-.16-.15-1.172-.182-2.864.772-3.081 1.151m7.693-1.554c1.562.107 2.964-1.744 3.063-2.252-.794-.114-1.579.18-2.162.476-.228.117-.174.172-.227.441a3.347 3.347 0 0 1-.147.516c-.06.158-.136.319-.222.446-.113.166-.226.224-.305.373m-15.34-2.542l-.735-.586c-.595-.516-1.433-1.359-2.415-1.594.101.748.569 1.62.958 1.94.608.5 1.331.599 2.192.24m4.129 3.206c.307.477 1.583.576 2.275.433.163-.033 1.565-.939 1.649-1.049-1.163-.211-2.476-.215-3.552.354-.061.033-.15.08-.198.111l-.174.151m8.848-.262c-1.481.373-.755 2.005.572 1.702 1.361-.309.778-2.04-.572-1.702M3.461 18.928c.02-1.193-.685-2.365-1.81-2.539-.283.573.061 1.399.38 1.719.218.218.309.309.616.494.188.113.587.302.814.326m22.814 4.683c.604.247 1.237.541 1.977.628.65.076 1.693-.182 2.033-.551-.438-.484-2.227-.463-3.034-.333l-.754.15c-.025.007-.082.022-.105.032l-.117.074M13.694 21.95c.165.726 1.559 2.286 2.713 2.276-.161-.235-.345-.477-.522-.765-.163-.263-.311-.549-.489-.802-.391-.557-.766-.929-1.702-.709"/>
    <path fill="#FFFFFE" d="M13.77 27.246c.614.333 1.119.936 1.657 1.12.464.158.569-.303.677-.668.114-.387.185-.818.224-1.227-.21.056-.375.157-.584.242-.206.082-.405.145-.625.217-.213.069-1.307.292-1.349.316m-.203-3.453l-.495-.766c-.43-.758-1.013-1.707-2.183-1.67l.131.213c.29.403.63 1.021.898 1.323.293.333 1.012.81 1.649.9m6.822 2.143c.574.167 1.691.336 2.128-.069-.286-.555-1.228-.862-2.103-.843.044.426-.026.572-.025.912m-2.247-3.728c-.501.299-.223 1.245.326 1.003.521-.23.202-1.318-.326-1.003"/>
  </g>
</svg>
