<svg xmlns="http://www.w3.org/2000/svg" viewBox="0 0 144 58.1">
  <g fill="#727373">
    <path d="M47.2 56h-1.1v-9H48l2.3 7.6 2.3-7.6h1.9v9h-1.1v-8l-2.5 8h-1.1l-2.5-8v8zm9.9 0v-9h4.6v1h-3.5v2.9h3.2v1h-3.2V55h3.6v1h-4.7zm7.2-9h2.8c1.1 0 2 .4 2.4 1.4.4.8.4 2.6.4 2.8 0 1.9-.2 3-.5 3.6-.5.8-1.4 1.2-3 1.2h-2.1v-9zm1.1 8h1.1c1.6 0 2.2-.6 2.2-2.7v-1.8c0-1.8-.6-2.5-1.8-2.5h-1.5v7zm8.1 1h-1.1v-9h1.1v9zm6.7-6.6c0-.5 0-1-.3-1.3-.2-.3-.8-.4-1-.4-.9 0-1.3.6-1.4.7 0 .1-.3.3-.3 1.9v2.4c0 2.2.7 2.5 1.6 2.5.3 0 1.4-.1 1.4-1.9h1.2c.1 2.8-2 2.8-2.5 2.8-1.1 0-2.8-.1-2.8-3.6V50c0-2.5 1.1-3.3 2.9-3.3 1.8 0 2.5.9 2.4 2.7h-1.2zm5.6-2.4h1.5l2.9 9h-1.3l-.6-2.1h-3.5l-.7 2.1h-1.2l2.9-9zm.7 1l-1.4 4.8H88L86.5 48zm5.5 8v-9h1.1v8h3.3v1H92zm13.4-6.6c0-.5 0-1-.3-1.3-.2-.3-.8-.4-1-.4-.9 0-1.3.6-1.4.7 0 .1-.3.3-.3 1.9v2.4c0 2.2.7 2.5 1.6 2.5.3 0 1.4-.1 1.4-1.9h1.2c.1 2.8-2 2.8-2.5 2.8-1.1 0-2.8-.1-2.8-3.6V50c0-2.5 1.1-3.3 2.9-3.3 1.8 0 2.5.9 2.4 2.7h-1.2zM109 56v-9h4.6v1h-3.5v2.9h3.2v1h-3.2V55h3.6v1H109zm13-9v9h-1.6l-3.6-7.8V56h-1v-9h1.6l3.5 7.7V47h1.1zm7.8 0v1h-2.4v8h-1.1v-8h-2.4v-1h5.9zm1.8 9v-9h4.6v1h-3.5v2.9h3.2v1h-3.2V55h3.6v1h-4.7zm7.9-4.2V56h-1.1v-9h3.1c1.6 0 2.2 1.1 2.2 2.2s-.6 1.9-1.6 2.1c1 .2 1.4.5 1.5 2.3 0 .4.1 1.8.3 2.4h-1.2c-.3-.6-.2-1.8-.3-3-.1-1.1-1-1.1-1.4-1.1h-1.5zm0-1h1.7c.8 0 1.2-.7 1.2-1.5 0-.6-.3-1.4-1.2-1.4h-1.7v2.9zM12 39.3v-18h5.1l4.8 12.5V21.3h3.5v18h-5l-4.9-13.2v13.2H12zM31.9 33l-4.7-11.8h4.1l2.7 7.6 2.9-7.6h3.8l-5 11.8v6.2h-3.8V33zm22.7-11.7V34c0 2.7-1.5 5.5-6.1 5.5-4.1 0-6.1-2.1-6.1-5.5V21.3h3.8v12.5c0 2.2.9 3.1 2.3 3.1 1.6 0 2.4-1.1 2.4-3.1V21.3h3.7zm6.2 18v-18h3.8v15h5.6v3h-9.4zm20.4-2.4c0 .8.1 1.6.2 2.3h-3.3l-.1-1.7h-.1c-.8 1.3-1.8 1.9-3.3 1.9-2.4 0-3.3-1.8-3.3-4 0-4.2 3.2-4.3 6.5-4.3v-1c0-1.1-.1-1.8-1.4-1.8-1.2 0-1.3.9-1.3 1.9h-3.4c0-1.5.5-2.5 1.3-3.1.8-.6 1.9-.8 3.3-.8 4.5 0 5 1.9 5 4.2v6.4zm-6.5-1.5c0 .9.1 2 1.3 2 2.1 0 1.7-2.8 1.7-4.2-1.7.1-3-.1-3 2.2zm12.9-7.5c.8-1.1 1.7-1.5 3-1.5 1.7 0 3.1 1 3.1 2.7v10.1h-3.5v-8.7c0-1.1-.2-2-1.3-2s-1.3.9-1.3 2v8.7h-3.5V26.7h3.5v1.2zm18.6-1.2v13.1c0 .9.1 4.3-4.8 4.3-2.6 0-4.9-.7-4.9-3.7h3.4c0 .5.1 1 .3 1.3.2.3.6.5 1.2.5.9 0 1.3-.8 1.3-2.1v-2.4h-.1c-.5 1-1.5 1.5-2.7 1.5-3.9 0-3.7-3.5-3.7-6.4 0-2.8.1-6.3 3.7-6.3 1.2 0 2.3.5 2.8 1.7v-1.5h3.5zm-5 10.2c1.3 0 1.4-1.3 1.4-4 0-2.8-.1-4.3-1.4-4.3-1.3 0-1.5.9-1.5 4.8 0 1.1-.2 3.5 1.5 3.5zm7.6-4.1c0-3.4.5-6.4 5.1-6.4s5.1 2.9 5.1 6.4c0 3.9-.6 6.7-5.1 6.7s-5.1-2.7-5.1-6.7zm6.7-.2c0-2.6-.1-3.9-1.6-3.9s-1.6 1.3-1.6 3.9c0 3.8.3 4.7 1.6 4.7s1.6-.8 1.6-4.7zm9.5-4.7c.7-1.1 1.7-1.5 3-1.5 1.7 0 3.1 1 3.1 2.7v10.1h-3.5v-8.7c0-1.1-.2-2-1.3-2s-1.3.9-1.3 2v8.7h-3.5V26.7h3.5v1.2zm12.2 5.6c0 1.5 0 3.7 1.6 3.7 1.2 0 1.5-1.2 1.5-2.2h3.6c0 1.4-.5 2.5-1.3 3.3-.8.8-2.1 1.2-3.7 1.2-4.5 0-5.1-2.8-5.1-6.7 0-3.4.5-6.4 5.1-6.4 4.7 0 5.3 3.1 5.1 7.1h-6.8zm3.3-1.9c0-1.2.1-3-1.6-3-1.6 0-1.6 1.9-1.6 3h3.2z"/>
    <path d="M3.9 15.4C6 12 9.1 9 13 6.9c6.1-3.4 13.7-4.7 21.5-3.1C41.9 5.3 48.1 9.1 52.4 14v-.1C45.8 1.8 31.2-3.4 18 2.3 11.8 5 6.9 9.7 3.9 15.4c-.1 0-.1 0 0 0-.1 0-.1.1 0 0 0 .1 0 0 0 0zm37.6 38.5c-.3.1-.5.2-.8.3-14.3 4.7-31.1-2.4-37.6-16-.2-.4-.3-.7-.5-1.1C.8 33.2.1 28.9.6 24.6H.5c-1 5.2-.6 10.6 1.3 15.8 5.5 14.8 22 21.6 36.5 15.4 1.2-.6 2.1-1.1 3.2-1.9.1 0 0 0 0 0z"/>
  </g>
</svg>
