<svg xmlns="http://www.w3.org/2000/svg" viewBox="0 0 160 50">
  <g fill="#676767">
    <path d="M34.5 37.3v5.6h-.9l-2.2-4.8h-.1v4.8h-.6v-5.6h1l2.2 4.8v-4.8zm4.8 0h.7l-1.5 3.5v2.1h-.8v-2.1l-1.5-3.5h.8l1.1 2.7zm2.3 0h.7v3.6c0 1.2.4 1.5 1 1.5.7 0 1-.3 1-1.5v-3.6h.7v3.5c0 1.5-.6 2.2-1.8 2.2-1.2 0-1.8-.6-1.8-2.2.2.1.2-3.5.2-3.5zm8.5 5.6v-5.6h.7v5h2v.6zm5.6-5.6h.9l1.8 5.6h-.8l-.4-1.3H55l-.4 1.3H54l1.7-5.6zm.5.7l-.9 3h1.8l-.9-3zm7.8-.7v5.6h-.9l-2.2-4.8h-.1v4.8h-.6v-5.6h1l2.2 4.8v-4.8zm5 1.5c0-.7-.3-1-1-1-.2 0-1 0-1 1.2v1.9c0 1.2.4 1.5 1 1.5.5 0 .9-.1 1-.2v-1.7h-1v-.6h1.7v2.7c-.5.2-1 .4-1.7.4-1.2 0-1.8-.6-1.8-2.2V39c0-1.1.6-1.8 1.8-1.8 1.2 0 1.8.4 1.7 1.6H69zm3 2.1V39c0-1.1.6-1.8 1.8-1.8 1.2 0 1.8.7 1.8 1.8v1.8c0 1.5-.6 2.2-1.8 2.2-1.3 0-1.8-.6-1.8-2.1m2.8 0V39c0-1.2-.8-1.2-1-1.2-.2 0-1 0-1 1.2v1.9c0 1.2.4 1.5 1 1.5s1-.3 1-1.5m6.8-3.6v5.6h-1l-2.2-4.8v4.8h-.7v-5.6h1l2.2 4.8v-4.8zm2.2 5.6v-5.6h2.9v.6h-2.2v1.8h2.1v.7h-2.1v1.9h2.3v.6zm8.3 0h-.7v-5.6h1.1l1.4 4.7h.1l1.4-4.7h1.2v5.6h-.8v-5l-1.5 5h-.7l-1.5-5zm6.7 0v-5.6h2.9v.6h-2.2v1.8h2v.7h-2v1.9h2.2v.6zm4.9-5.6h1.7c.7 0 1.2.3 1.5.8.2.5.2 1.6.2 1.8 0 1.2-.1 1.9-.3 2.2-.3.5-.9.7-1.8.7h-1.3v-5.5zm.7 5h.7c1 0 1.4-.4 1.4-1.7v-1.1c0-1.1-.3-1.5-1.1-1.5h-.9c-.1-.1-.1 4.3-.1 4.3zm5-5h.7v5.6h-.7zm5.5 1.6c0-.3 0-.6-.2-.8-.1-.2-.5-.2-.6-.2-.6 0-.8.4-.8.4 0 .1-.2.2-.2 1.2V41c0 1.4.4 1.5 1 1.5.2 0 .9-.1.9-1.2h.7c0 1.8-1.2 1.8-1.6 1.8-.7 0-1.8 0-1.8-2.2v-1.6c0-1.6.7-2 1.8-2s1.5.6 1.5 1.7l-.7-.1zm4.1-1.6h.9l1.8 5.6h-.8l-.4-1.3h-2.2l-.4 1.3h-.7l1.8-5.6zm.4.7l-.9 3h1.8l-.9-3zm4 4.9v-5.6h.8v5h2v.6zm9.6-4c0-.3 0-.6-.2-.8-.1-.2-.5-.2-.6-.2-.6 0-.8.4-.8.4 0 .1-.2.2-.2 1.2V41c0 1.4.4 1.5 1 1.5.2 0 .9-.1.9-1.2h.7c0 1.8-1.2 1.8-1.6 1.8-.7 0-1.8 0-1.8-2.2v-1.6c0-1.6.7-2 1.8-2s1.5.6 1.5 1.7l-.7-.1zm2.8 4v-5.6h2.9v.6h-2.2v1.8h2.1v.7h-2.1v1.9h2.3v.6zm8.7-5.6v5.6h-.9l-2.2-4.8v4.8h-.7v-5.6h1l2.2 4.8v-4.8zm5.4 0v.6h-1.4v5h-.7v-5h-1.5v-.6zm1.8 5.6v-5.6h2.8v.6h-2.1v1.8h2v.7h-2v1.9h2.2v.6zm5.5-2.6v2.6h-.7v-5.6h1.9c1 0 1.3.7 1.3 1.4s-.4 1.2-1 1.3c.6.1.9.3.9 1.4 0 .2.1 1.1.2 1.5h-.7c-.2-.4-.2-1.1-.2-1.9-.1-.7-.6-.7-.8-.7h-.9zm0-.6h1.1c.5 0 .8-.4.8-.9 0-.4-.2-.8-.7-.8h-1.1v1.7zM43.7 32c-3.1 0-3.7-1.8-3.5-3.9h2.5c0 1.1 0 2.1 1.4 2.1.8 0 1.3-.5 1.3-1.4 0-2.2-5-2.3-5-5.9 0-1.9.9-3.4 3.9-3.4 2.4 0 3.6 1.1 3.5 3.6h-2.4c0-.9-.2-1.8-1.2-1.8-.8 0-1.3.4-1.3 1.3 0 2.3 5 2.1 5 5.8 0 3.2-2.3 3.6-4.2 3.6m9.5-5.6c0-1.2-.3-1.7-1-1.7-1 0-1.1.9-1.1 2.6 0 2.6.2 3.1 1.1 3.1.7 0 1.1-.7 1.1-1.8h2.3c0 2.3-1.2 3.3-3.4 3.3-3 0-3.4-1.8-3.4-4.5 0-2.3.3-4.2 3.4-4.2 2.2 0 3.4 1 3.4 3.2h-2.4zm7.6 5.4V26c0-.7-.1-1.3-.9-1.3-.7 0-.9.6-.9 1.3v5.8h-2.3v-12H59v4.4c.5-.7 1.1-1 2-1 1.1 0 2.1.7 2.1 1.8v6.7c0 .1-2.3.1-2.3.1zm3.4-4.3c0-2.3.3-4.2 3.4-4.2s3.4 2 3.4 4.2c0 2.6-.4 4.5-3.4 4.5s-3.4-1.9-3.4-4.5m4.5-.1c0-1.7-.1-2.6-1.1-2.6s-1.1.9-1.1 2.6c0 2.6.2 3.1 1.1 3.1.9 0 1.1-.6 1.1-3.1m3.2.1c0-2.3.3-4.2 3.4-4.2s3.4 2 3.4 4.2c0 2.6-.4 4.5-3.4 4.5s-3.4-1.9-3.4-4.5m4.5-.1c0-1.7-.1-2.6-1.1-2.6s-1.1.9-1.1 2.6c0 2.6.2 3.1 1.1 3.1.9 0 1.1-.6 1.1-3.1m3.5-7.6h2.3v12h-2.3zm5.9 7.7c0-2.3.3-4.2 3.4-4.2s3.4 2 3.4 4.2c0 2.6-.4 4.5-3.4 4.5s-3.4-1.9-3.4-4.5m4.5-.1c0-1.7-.1-2.6-1.1-2.6s-1.1.9-1.1 2.6c0 2.6.2 3.1 1.1 3.1.9 0 1.1-.6 1.1-3.1m7-6.1c-.9-.1-1.1.3-1.1 1.1v1h1.1v1.4h-1.1v6.9h-2.3v-6.9h-1v-1.4H94c0-2.4-.2-3.7 2.6-3.7h.8l-.1 1.6zm3.8 10.5v-12h4L107 28l2-8.2h3.9v12h-2.4v-9.2h-.1l-2.3 9.2h-2.3l-2.2-9.2h-.1v9.2zm15.3-3.8c0 1 0 2.5 1.1 2.5.8 0 1-.8 1-1.5h2.4c0 .9-.3 1.7-.9 2.2-.5.5-1.4.8-2.5.8-3 0-3.4-1.8-3.4-4.5 0-2.3.3-4.2 3.4-4.2 3.2 0 3.5 2 3.4 4.7h-4.5zm2.2-1.3c0-.8 0-2-1.1-2s-1.1 1.3-1.1 2h2.2zm7.6 5.1v-.9c-.4.8-1.1 1.1-2 1.1-2.4 0-2.3-2.7-2.3-4.4 0-1.7-.1-4.3 2.3-4.3.8 0 1.4.2 1.9 1v-4.4h2.3v12l-2.2-.1zm-.1-4.3c0-1.7 0-2.8-.9-2.8-1 0-1 1.2-1 2.8 0 2.1.1 3 1 3 .8 0 .9-.8.9-3m6.4-5.8h-2.3v-1.8h2.3v1.8zm0 10.1h-2.3v-8.4h2.3v8.4zm5.7-5.4c0-1.2-.3-1.7-1-1.7-1 0-1.1.9-1.1 2.6 0 2.6.2 3.1 1.1 3.1.7 0 1.1-.7 1.1-1.8h2.3c0 2.3-1.2 3.3-3.4 3.3-3 0-3.4-1.8-3.4-4.5 0-2.3.3-4.2 3.4-4.2 2.2 0 3.4 1 3.4 3.2h-2.4zm5.8-4.7h-2.3v-1.8h2.3v1.8zm0 10.1h-2.3v-8.4h2.3v8.4zm3.9-7.5c.5-.7 1.1-1 2-1 1.1 0 2.1.7 2.1 1.8v6.7h-2.3V26c0-.7-.1-1.3-.9-1.3-.7 0-.9.6-.9 1.3v5.8h-2.3v-8.4h2.3v.9zm7.6 3.7c0 1 0 2.5 1.1 2.5.8 0 1-.8 1-1.5h2.4c0 .9-.3 1.7-.9 2.2-.5.5-1.4.8-2.5.8-3 0-3.4-1.8-3.4-4.5 0-2.3.3-4.2 3.4-4.2 3.2 0 3.5 2 3.4 4.7h-4.5zm2.1-1.3c0-.8 0-2-1.1-2s-1.1 1.3-1.1 2h2.2zM8 31.8v-12h3.4l3.1 8.3h.1v-8.3h2.3v12h-3.3L10.3 23v8.8zm13.2-4.1l-3.1-7.9h2.7l1.8 5.1 1.9-5.1h2.6l-3.4 7.9v4.1h-2.5zm15.2-7.9v8.5c0 1.8-1 3.7-4.1 3.7-2.8 0-4.1-1.4-4.1-3.7v-8.5h2.5v8.3c0 1.5.6 2.1 1.5 2.1 1.1 0 1.6-.7 1.6-2.1v-8.3h2.6zM2.6 15.9c1.4-2.3 3.5-4.3 6.1-5.7 4-2.2 9.1-3.1 14.3-2.1 4.9 1 9 3.5 11.9 6.8-4.4-8-14.1-11.5-22.9-7.7-4.2 1.8-7.4 5-9.4 8.7-.1 0-.1 0 0 0-.1.1-.1.1 0 0 0 .1 0 .1 0 0"/>
    <path d="M27.6 41.5c-.2.1-.3.1-.5.2-9.5 3.1-20.7-1.6-25-10.6-.1-.2-.2-.5-.3-.7C.6 27.8.1 25 .5 22.1c-.6 3.4-.4 7.1.9 10.5C5.1 42.4 16 47 25.7 42.8c.6-.4 1.2-.7 1.9-1.3 0 .1 0 .1 0 0"/>
  </g>
</svg>
